<?xml version="1.0" encoding="UTF-8" standalone="no"?>
<!-- Created with Inkscape (http://www.inkscape.org/) -->

<svg
   width="1920mm"
   height="1080mm"
   viewBox="0 0 1920 1080"
   version="1.1"
   id="svg5"
   inkscape:version="1.2.1 (9c6d41e410, 2022-07-14)"
   sodipodi:docname="splatplost.svg"
   inkscape:export-filename="splatplost.pain-svg.png"
   inkscape:export-xdpi="50.799999"
   inkscape:export-ydpi="50.799999"
   xmlns:inkscape="http://www.inkscape.org/namespaces/inkscape"
   xmlns:sodipodi="http://sodipodi.sourceforge.net/DTD/sodipodi-0.dtd"
   xmlns="http://www.w3.org/2000/svg"
   xmlns:svg="http://www.w3.org/2000/svg"
   xmlns:rdf="http://www.w3.org/1999/02/22-rdf-syntax-ns#"
   xmlns:cc="http://creativecommons.org/ns#">
  <sodipodi:namedview
     id="namedview7"
     pagecolor="#ababab"
     bordercolor="#000000"
     borderopacity="0.25"
     inkscape:showpageshadow="2"
     inkscape:pageopacity="1"
     inkscape:pagecheckerboard="true"
     inkscape:deskcolor="#d0d0d0"
     inkscape:document-units="mm"
     showgrid="false"
     inkscape:zoom="0.10201867"
     inkscape:cx="3234.7022"
     inkscape:cy="2891.6277"
     inkscape:window-width="1920"
     inkscape:window-height="991"
     inkscape:window-x="0"
     inkscape:window-y="20"
     inkscape:window-maximized="1"
     inkscape:current-layer="layer2" />
  <defs
     id="defs2">
    <rect
       x="12669.576"
       y="7018.1113"
       width="5606.688"
       height="2217.3535"
       id="rect251" />
  </defs>
  <g
     inkscape:groupmode="layer"
     id="layer2"
     inkscape:label="图层 2">
    <rect
       style="fill:#808080;stroke-width:0.250483"
       id="rect265"
       width="1920"
       height="1080"
       x="-1.7763568e-15"
       y="0" />
  </g>
  <g
     inkscape:label="图层 1"
     inkscape:groupmode="layer"
     id="layer1">
    <g
       id="g695"
       transform="translate(30.315884,97.582838)">
      <g
         aria-label="Splatplost"
         id="text272"
         style="font-size:100px;text-align:end;text-anchor:end;fill:#ffffff;stroke-width:0.264583">
        <path
           d="m 1325.9947,639.82677 q -0.4,7.9 -1.5,17.4 -7.2,-0.2 -13.1,-0.2 -0.1,-7.5 0.1,-17.1 -10.1,0.8 -17.4,1.2 -0.2,13.4 0.3,26.9 8.4,0.1 17.2,0.1 6.6,5.8 13,11.4 -0.7,9.8 -0.8,17.7 -6.8,6.2 -13.2,11.9 -8.2,0 -15.4,-0.1 -8.7,-5.4 -15.1,-11 l -0.4,-11.2 15.5,-0.2 q 0,7 0.2,10.9 6.8,-0.3 15.2,-0.9 0.2,-7.1 0,-16.1 -6.9,-0.1 -15.7,0.1 -8.5,-5.8 -16.3,-11.6 0.2,-16.2 -0.7,-29.9 7.4,-6.3 14.1,-12.9 8.9,-0.4 19.5,-0.7 6.7,6.8 14.5,14.3 z"
           style="font-family:'Splatfont 2';-inkscape-font-specification:'Splatfont 2, '"
           id="path324" />
        <path
           d="m 1346.7948,660.72677 q -0.2,17.6 -0.4,34.1 h 11.1 l 1.2,-33.1 z m 11.3,46.4 -12.4,0.5 -0.1,22 h -11.9 q -0.6,-37.9 -1.7,-81.8 l 29,-0.4 12.2,13.2 -2.7,34.7 q -2.4,2.8 -5.5,5.8 -3.1,2.9 -5,4.5 z"
           style="font-family:'Splatfont 2';-inkscape-font-specification:'Splatfont 2, '"
           id="path326" />
        <path
           d="m 1392.9949,708.52677 -12.1,0.1 q -0.2,-41.9 -1.1,-82 h 15.3 q -1.1,39.3 -2.1,81.9 z"
           style="font-family:'Splatfont 2';-inkscape-font-specification:'Splatfont 2, '"
           id="path328" />
        <path
           d="m 1413.995,677.12677 q 0.3,10.6 1.3,21.4 7.8,-1 11.5,-1.5 0.3,-9 0.6,-19.7 z m 21.6,29.3 -19.5,4.4 q -6.1,-5 -13.6,-9.5 -0.9,-11.9 -2.3,-27.3 5.4,-4.1 12.9,-9.2 2.9,0.3 6.6,0.8 3.8,0.5 6,0.8 l 2.2,0.2 0.6,-6.9 -21.6,1 q -0.6,-5.2 -0.9,-13 h 23.4 q 6.5,5.3 11.9,10 -1.1,9.9 -2,19.7 -0.8,9.8 -1.1,14.6 l -0.3,4.9 q 2,0.7 7.7,1.5 l -3,11.9 z"
           style="font-family:'Splatfont 2';-inkscape-font-specification:'Splatfont 2, '"
           id="path330" />
        <path
           d="m 1482.895,708.82677 -16.3,-0.2 q -6.3,-5.8 -12.7,-11.3 l -0.4,-34.9 q -2.4,0.1 -5.8,0.1 l -0.6,-14 6.4,0.3 q 0,-10.8 -0.1,-13.1 l 14.7,0.5 -0.5,12.4 h 14.7 q -0.2,5.6 -0.6,14.4 -8.9,-0.3 -14.6,-0.5 l -0.4,33.7 15.8,-1.1 z"
           style="font-family:'Splatfont 2';-inkscape-font-specification:'Splatfont 2, '"
           id="path332" />
        <path
           d="m 1503.5949,660.72677 q -0.2,17.6 -0.4,34.1 h 11.1 l 1.2,-33.1 z m 11.3,46.4 -12.4,0.5 -0.1,22 h -11.9 q -0.6,-37.9 -1.7,-81.8 l 29,-0.4 12.2,13.2 -2.7,34.7 q -2.4,2.8 -5.5,5.8 -3.1,2.9 -5,4.5 z"
           style="font-family:'Splatfont 2';-inkscape-font-specification:'Splatfont 2, '"
           id="path334" />
        <path
           d="m 1549.795,708.52677 -12.1,0.1 q -0.2,-41.9 -1.1,-82 h 15.3 q -1.1,39.3 -2.1,81.9 z"
           style="font-family:'Splatfont 2';-inkscape-font-specification:'Splatfont 2, '"
           id="path336" />
        <path
           d="m 1572.595,661.02677 q 0.4,18.1 0.8,37 6,0.5 11.5,0.6 0.5,-17.3 1.1,-37.7 -8,-0.1 -13.4,0.1 z m 24.8,38.3 q -6.3,4.8 -12.6,9.7 h -11.6 q -6.4,-4.4 -12.8,-10.4 -1.1,-17.5 -1.8,-38.3 5.9,-6.4 11.6,-11.7 7,-0.5 16.3,-1.1 7.1,6.1 13.1,13 -1.1,11.4 -1.7,30.8 -0.3,8 -0.5,8 z"
           style="font-family:'Splatfont 2';-inkscape-font-specification:'Splatfont 2, '"
           id="path338" />
        <path
           d="m 1648.5949,660.62677 q 0.2,3.5 0.3,8.7 -8.7,-0.1 -15.2,-0.5 0,-3.3 0.1,-7.2 -4.9,0.1 -11.9,0.6 0,7.1 0.2,11.7 5.5,0.5 11.6,-0.1 6.6,5.1 13.7,10.3 -0.4,6.1 -1.2,13.6 -6.8,6.4 -12.1,10.8 -6.2,0.1 -13.9,0.2 -7.1,-6.4 -11.8,-10.9 -0.4,-3.6 -0.6,-6.6 l 14.1,-0.2 q 0.1,3 0.1,5.9 5.3,-0.1 11.4,-0.2 l 0.2,-10.4 -11.4,-0.2 q -3.3,-2.4 -6.9,-4.7 -3.6,-2.4 -5.6,-3.6 l -2,-1.1 q -0.3,-8.4 -0.4,-14.7 7.6,-8.3 14.1,-13.8 6.7,-0.2 13.5,-0.5 8.1,8.2 13.7,12.9 z"
           style="font-family:'Splatfont 2';-inkscape-font-specification:'Splatfont 2, '"
           id="path340" />
        <path
           d="m 1690.0948,708.82677 -16.3,-0.2 q -6.3,-5.8 -12.7,-11.3 l -0.4,-34.9 q -2.4,0.1 -5.8,0.1 l -0.6,-14 6.4,0.3 q 0,-10.8 -0.1,-13.1 l 14.7,0.5 -0.5,12.4 h 14.7 q -0.2,5.6 -0.6,14.4 -8.9,-0.3 -14.6,-0.5 l -0.4,33.7 15.8,-1.1 z"
           style="font-family:'Splatfont 2';-inkscape-font-specification:'Splatfont 2, '"
           id="path343"
           inkscape:label="path343" />
      </g>
      <g
         aria-label="KDE Desktop Environment
Built with Arch Linux"
         id="text452"
         style="font-size:50px;font-family:'Splatfont 2';-inkscape-font-specification:'Splatfont 2, ';text-align:end;text-anchor:end;stroke-width:0.264583"
         transform="matrix(0.66408135,0,0,0.66408135,567.71758,251.98818)">
        <path
           d="m 1065.613,785.75604 v -36.13281 h 4.8096 v 17.77344 l 14.624,-17.77344 h 5.1514 l -14.1602,17.23633 16.6748,18.89648 h -6.4941 l -15.7959,-18.31054 v 18.31054 z"
           style="font-family:'Lucida Sans Unicode';-inkscape-font-specification:'Lucida Sans Unicode'"
           id="path506" />
        <path
           d="m 1098.2546,785.75604 v -36.13281 h 12.0118 q 5.3711,0 8.6669,1.19629 3.3204,1.19629 5.7374,4.05273 3.833,4.54102 3.833,11.96289 0,8.37403 -4.4922,13.57422 -2.4414,2.85645 -5.6641,4.10157 -3.1982,1.24511 -8.0078,1.24511 z m 5.127,-3.83301 h 6.5674 q 7.0312,0 9.9609,-3.78418 3.1494,-4.02832 3.1494,-10.81542 0,-6.37208 -3.1006,-10.00977 -1.8798,-2.22168 -4.4921,-3.02734 -2.6124,-0.83008 -7.8614,-0.83008 h -4.2236 z"
           style="font-family:'Lucida Sans Unicode';-inkscape-font-specification:'Lucida Sans Unicode'"
           id="path508" />
        <path
           d="m 1135.7058,785.75604 v -36.13281 h 20.1904 v 3.83301 h -15.0634 v 11.59668 h 12.622 v 3.78418 h -12.622 v 13.08593 h 16.1132 v 3.83301 z"
           style="font-family:'Lucida Sans Unicode';-inkscape-font-specification:'Lucida Sans Unicode'"
           id="path510" />
        <path
           d="m 1178.6257,785.75604 v -36.13281 h 12.0118 q 5.371,0 8.6669,1.19629 3.3204,1.19629 5.7373,4.05273 3.8331,4.54102 3.8331,11.96289 0,8.37403 -4.4922,13.57422 -2.4414,2.85645 -5.6641,4.10157 -3.1982,1.24511 -8.0078,1.24511 z m 5.127,-3.83301 h 6.5674 q 7.0312,0 9.9609,-3.78418 3.1494,-4.02832 3.1494,-10.81542 0,-6.37208 -3.1006,-10.00977 -1.8798,-2.22168 -4.4922,-3.02734 -2.6123,-0.83008 -7.8613,-0.83008 h -4.2236 z"
           style="font-family:'Lucida Sans Unicode';-inkscape-font-specification:'Lucida Sans Unicode'"
           id="path512" />
        <path
           d="m 1235.657,784.90155 q -4.834,1.46484 -8.2764,1.46484 -5.8838,0 -9.5703,-3.88183 -3.6865,-3.90625 -3.6865,-10.10742 0,-6.03028 3.247,-9.8877 3.2715,-3.85742 8.3497,-3.85742 4.8095,0 7.4218,3.44238 2.6368,3.41797 2.6368,9.7168 l -0.024,1.46484 h -16.7236 q 1.0498,9.44824 9.2529,9.44824 3.003,0 7.3731,-1.61132 z m -16.4063,-15.25879 h 11.6944 q 0,-7.39746 -5.5176,-7.39746 -5.542,0 -6.1768,7.39746 z"
           style="font-family:'Lucida Sans Unicode';-inkscape-font-specification:'Lucida Sans Unicode'"
           id="path514" />
        <path
           d="m 1243.1033,784.82831 v -4.41895 q 4.7119,2.34375 8.2031,2.34375 2.0752,0 3.4424,-1.12304 1.3672,-1.12305 1.3672,-2.80762 0,-2.46582 -3.833,-4.07715 l -2.8077,-1.19629 q -6.2255,-2.58789 -6.2255,-7.44629 0,-3.46679 2.4414,-5.44433 2.4658,-2.00196 6.7382,-2.00196 2.2217,0 5.4932,0.61035 l 1.001,0.19532 v 4.0039 q -4.0283,-1.19629 -6.4209,-1.19629 -2.0996,0 -3.3692,0.92774 -1.2451,0.90332 -1.2451,2.4414 0,2.17286 3.5157,3.66211 l 2.3193,0.97657 q 3.9307,1.66015 5.5664,3.51562 1.6357,1.83106 1.6357,4.58985 0,3.49121 -2.7588,5.7373 -2.7587,2.24609 -7.0556,2.24609 -3.2959,0 -8.0078,-1.53808 z"
           style="font-family:'Lucida Sans Unicode';-inkscape-font-specification:'Lucida Sans Unicode'"
           id="path516" />
        <path
           d="m 1269.5681,785.75604 v -38.5498 h 4.8096 v 24.90234 l 11.2305,-12.86621 h 5.1757 l -10.7177,12.37793 12.9394,14.13574 h -6.1523 l -12.4756,-13.59863 v 13.59863 z"
           style="font-family:'Lucida Sans Unicode';-inkscape-font-specification:'Lucida Sans Unicode'"
           id="path518" />
        <path
           d="m 1310.6082,785.75604 q -2.2217,0.61035 -3.8575,0.61035 -3.6621,0 -5.7129,-2.09961 -2.0507,-2.0996 -2.0507,-5.83496 v -15.57617 h -3.3204 v -3.61328 h 3.3204 v -4.80957 l 4.8095,-0.46387 v 5.27344 h 6.9336 v 3.61328 h -6.9336 v 14.69727 q 0,5.20019 4.4922,5.20019 0.9522,0 2.3194,-0.31738 z"
           style="font-family:'Lucida Sans Unicode';-inkscape-font-specification:'Lucida Sans Unicode'"
           id="path520" />
        <path
           d="m 1328.0398,786.36639 q -5.835,0 -9.2529,-3.73535 -3.3936,-3.73535 -3.3936,-10.13183 0,-6.39649 3.3936,-10.10743 3.4179,-3.73535 9.2529,-3.73535 5.835,0 9.2285,3.73535 3.418,3.71094 3.418,10.10743 0,6.39648 -3.418,10.13183 -3.3935,3.73535 -9.2285,3.73535 z m 0,-3.61328 q 3.5889,0 5.5664,-2.68554 1.9775,-2.68555 1.9775,-7.56836 0,-4.88282 -1.9775,-7.54395 -1.9775,-2.68555 -5.5664,-2.68555 -3.5889,0 -5.5664,2.68555 -1.9531,2.66113 -1.9531,7.54395 0,4.88281 1.9531,7.56836 1.9775,2.68554 5.5664,2.68554 z"
           style="font-family:'Lucida Sans Unicode';-inkscape-font-specification:'Lucida Sans Unicode'"
           id="path522" />
        <path
           d="m 1348.2058,795.3996 v -36.15723 h 4.8096 v 4.98047 q 2.9541,-5.56641 8.8623,-5.56641 4.7851,0 7.5195,3.49121 2.7588,3.49121 2.7588,9.5459 0,6.5918 -3.125,10.64453 -3.1006,4.02832 -8.1787,4.02832 -4.7119,0 -7.8369,-3.61328 v 12.64649 z m 4.8096,-15.9668 q 3.7109,3.32031 7.0801,3.32031 3.3203,0 5.1269,-2.75879 1.8067,-2.7832 1.8067,-7.8125 0,-9.32617 -6.1524,-9.32617 -4.0283,0 -7.8613,4.37012 z"
           style="font-family:'Lucida Sans Unicode';-inkscape-font-specification:'Lucida Sans Unicode'"
           id="path524" />
        <path
           d="m 1395.3494,785.75604 v -36.13281 h 20.1904 v 3.83301 h -15.0635 v 11.59668 h 12.6221 v 3.78418 h -12.6221 v 13.08593 h 16.1133 v 3.83301 z"
           style="font-family:'Lucida Sans Unicode';-inkscape-font-specification:'Lucida Sans Unicode'"
           id="path526" />
        <path
           d="m 1422.5955,785.75604 v -26.51367 h 4.8095 v 4.98047 q 3.8086,-5.56641 9.3262,-5.56641 3.4668,0 5.4932,2.19727 2.0507,2.17285 2.0507,5.85937 v 19.04297 h -4.8095 v -17.48047 q 0,-2.9541 -0.8789,-4.19922 -0.8545,-1.26953 -2.8565,-1.26953 -4.4189,0 -8.3252,5.78614 v 17.16308 z"
           style="font-family:'Lucida Sans Unicode';-inkscape-font-specification:'Lucida Sans Unicode'"
           id="path528" />
        <path
           d="m 1459.1189,785.75604 -9.8633,-26.51367 h 4.8096 l 7.7148,20.62988 8.1299,-20.62988 h 4.4922 l -10.4736,26.51367 z"
           style="font-family:'Lucida Sans Unicode';-inkscape-font-specification:'Lucida Sans Unicode'"
           id="path530" />
        <path
           d="m 1479.5046,785.75604 v -26.51367 h 4.8096 v 26.51367 z m 0,-31.32324 v -4.80957 h 4.8096 v 4.80957 z"
           style="font-family:'Lucida Sans Unicode';-inkscape-font-specification:'Lucida Sans Unicode'"
           id="path532" />
        <path
           d="m 1493.9578,785.75604 v -26.51367 h 4.8095 v 4.98047 q 2.8565,-5.56641 8.3008,-5.56641 0.7324,0 1.5381,0.12207 v 4.49219 q -1.2451,-0.41504 -2.1973,-0.41504 -4.5654,0 -7.6416,5.41992 v 17.48047 z"
           style="font-family:'Lucida Sans Unicode';-inkscape-font-specification:'Lucida Sans Unicode'"
           id="path534" />
        <path
           d="m 1524.9636,786.36639 q -5.8349,0 -9.2529,-3.73535 -3.3936,-3.73535 -3.3936,-10.13183 0,-6.39649 3.3936,-10.10743 3.418,-3.73535 9.2529,-3.73535 5.835,0 9.2285,3.73535 3.418,3.71094 3.418,10.10743 0,6.39648 -3.418,10.13183 -3.3935,3.73535 -9.2285,3.73535 z m 0,-3.61328 q 3.5889,0 5.5664,-2.68554 1.9776,-2.68555 1.9776,-7.56836 0,-4.88282 -1.9776,-7.54395 -1.9775,-2.68555 -5.5664,-2.68555 -3.5888,0 -5.5664,2.68555 -1.9531,2.66113 -1.9531,7.54395 0,4.88281 1.9531,7.56836 1.9776,2.68554 5.5664,2.68554 z"
           style="font-family:'Lucida Sans Unicode';-inkscape-font-specification:'Lucida Sans Unicode'"
           id="path536" />
        <path
           d="m 1545.1296,785.75604 v -26.51367 h 4.8096 v 4.98047 q 3.8086,-5.56641 9.3262,-5.56641 3.4668,0 5.4931,2.19727 2.0508,2.17285 2.0508,5.85937 v 19.04297 h -4.8095 v -17.48047 q 0,-2.9541 -0.879,-4.19922 -0.8544,-1.26953 -2.8564,-1.26953 -4.4189,0 -8.3252,5.78614 v 17.16308 z"
           style="font-family:'Lucida Sans Unicode';-inkscape-font-specification:'Lucida Sans Unicode'"
           id="path538" />
        <path
           d="m 1576.1599,785.75604 v -26.51367 h 4.8096 v 4.98047 q 3.5156,-5.56641 9.0332,-5.56641 5.3223,0 7.251,5.56641 3.4179,-5.59082 8.8867,-5.59082 3.4912,0 5.4199,2.07519 1.9531,2.05079 1.9531,5.76172 v 19.28711 h -4.834 v -18.53027 q 0,-4.54102 -3.5888,-4.54102 -3.7354,0 -7.8369,5.29785 v 17.77344 h -4.834 v -18.53027 q 0,-4.56543 -3.6621,-4.56543 -3.6377,0 -7.7881,5.32226 v 17.77344 z"
           style="font-family:'Lucida Sans Unicode';-inkscape-font-specification:'Lucida Sans Unicode'"
           id="path540" />
        <path
           d="m 1642.2732,784.90155 q -4.834,1.46484 -8.2764,1.46484 -5.8838,0 -9.5703,-3.88183 -3.6865,-3.90625 -3.6865,-10.10742 0,-6.03028 3.2471,-9.8877 3.2714,-3.85742 8.3496,-3.85742 4.8095,0 7.4218,3.44238 2.6368,3.41797 2.6368,9.7168 l -0.024,1.46484 h -16.7236 q 1.0498,9.44824 9.2529,9.44824 3.003,0 7.3731,-1.61132 z m -16.4063,-15.25879 h 11.6944 q 0,-7.39746 -5.5176,-7.39746 -5.542,0 -6.1768,7.39746 z"
           style="font-family:'Lucida Sans Unicode';-inkscape-font-specification:'Lucida Sans Unicode'"
           id="path542" />
        <path
           d="m 1650.696,785.75604 v -26.51367 h 4.8096 v 4.98047 q 3.8086,-5.56641 9.3262,-5.56641 3.4668,0 5.4932,2.19727 2.0507,2.17285 2.0507,5.85937 v 19.04297 h -4.8095 v -17.48047 q 0,-2.9541 -0.8789,-4.19922 -0.8545,-1.26953 -2.8565,-1.26953 -4.4189,0 -8.3252,5.78614 v 17.16308 z"
           style="font-family:'Lucida Sans Unicode';-inkscape-font-specification:'Lucida Sans Unicode'"
           id="path544" />
        <path
           d="m 1693.5427,785.75604 q -2.2217,0.61035 -3.8574,0.61035 -3.6621,0 -5.7129,-2.09961 -2.0508,-2.0996 -2.0508,-5.83496 v -15.57617 h -3.3203 v -3.61328 h 3.3203 v -4.80957 l 4.8096,-0.46387 v 5.27344 h 6.9336 v 3.61328 h -6.9336 v 14.69727 q 0,5.20019 4.4922,5.20019 0.9521,0 2.3193,-0.31738 z"
           style="font-family:'Lucida Sans Unicode';-inkscape-font-specification:'Lucida Sans Unicode'"
           id="path546" />
        <path
           d="m 1197.2781,852.61195 v -36.13281 h 9.375 q 5.4199,0 8.3008,2.05078 2.9052,2.05078 2.9052,5.9082 0,3.125 -1.9287,5.56641 -1.9287,2.4414 -5.4931,3.78418 8.8623,2.70996 8.8623,9.79004 0,3.17382 -1.9532,5.63964 -1.4892,1.87989 -3.5888,2.63672 -2.0996,0.75684 -5.835,0.75684 z m 5.0781,-3.83301 h 1.0498 q 5.6397,0 7.2998,-0.70801 3.1738,-1.34277 3.1738,-4.98046 0,-3.22266 -2.8808,-5.34668 -2.8809,-2.14844 -7.2022,-2.14844 h -1.4404 z m 0,-16.43066 h 1.6357 q 4.126,0 6.3721,-1.75781 2.2461,-1.75782 2.2461,-5.00489 0,-5.27344 -8.2519,-5.27344 h -2.002 z"
           style="font-family:'Lucida Sans Unicode';-inkscape-font-specification:'Lucida Sans Unicode'"
           id="path548" />
        <path
           d="m 1242.7615,852.61195 v -4.98047 q -3.833,5.59082 -9.3018,5.59082 -3.4668,0 -5.5176,-2.17285 -2.0507,-2.19727 -2.0507,-5.9082 v -19.04297 h 4.8095 v 17.48047 q 0,2.97851 0.8545,4.24804 0.8789,1.24512 2.9053,1.24512 4.3945,0 8.3008,-5.78613 v -17.1875 h 4.8095 v 26.51367 z"
           style="font-family:'Lucida Sans Unicode';-inkscape-font-specification:'Lucida Sans Unicode'"
           id="path550" />
        <path
           d="m 1257.2146,852.61195 v -26.51367 h 4.8096 v 26.51367 z m 0,-31.32324 v -4.80957 h 4.8096 v 4.80957 z"
           style="font-family:'Lucida Sans Unicode';-inkscape-font-specification:'Lucida Sans Unicode'"
           id="path552" />
        <path
           d="m 1271.6677,852.61195 v -38.54981 h 4.8096 v 38.54981 z"
           style="font-family:'Lucida Sans Unicode';-inkscape-font-specification:'Lucida Sans Unicode'"
           id="path554" />
        <path
           d="m 1297.9373,852.61195 q -2.2217,0.61035 -3.8575,0.61035 -3.6621,0 -5.7129,-2.09961 -2.0507,-2.09961 -2.0507,-5.83496 v -15.57617 h -3.3204 v -3.61328 h 3.3204 v -4.80957 l 4.8095,-0.46387 v 5.27344 h 6.9336 v 3.61328 h -6.9336 v 14.69726 q 0,5.2002 4.4922,5.2002 0.9522,0 2.3194,-0.31738 z"
           style="font-family:'Lucida Sans Unicode';-inkscape-font-specification:'Lucida Sans Unicode'"
           id="path556" />
        <path
           d="m 1323.7185,852.61195 -7.5928,-26.51367 h 4.7119 l 5.8106,20.53222 6.2744,-20.53222 h 4.8096 l 5.4931,20.53222 6.6651,-20.53222 h 4.126 l -8.6426,26.51367 h -4.834 l -5.6152,-20.53223 -6.3477,20.53223 z"
           style="font-family:'Lucida Sans Unicode';-inkscape-font-specification:'Lucida Sans Unicode'"
           id="path558" />
        <path
           d="m 1359.1677,852.61195 v -26.51367 h 4.8096 v 26.51367 z m 0,-31.32324 v -4.80957 h 4.8096 v 4.80957 z"
           style="font-family:'Lucida Sans Unicode';-inkscape-font-specification:'Lucida Sans Unicode'"
           id="path560" />
        <path
           d="m 1385.4373,852.61195 q -2.2217,0.61035 -3.8575,0.61035 -3.6621,0 -5.7129,-2.09961 -2.0507,-2.09961 -2.0507,-5.83496 v -15.57617 h -3.3204 v -3.61328 h 3.3204 v -4.80957 l 4.8095,-0.46387 v 5.27344 h 6.9336 v 3.61328 h -6.9336 v 14.69726 q 0,5.2002 4.4922,5.2002 0.9522,0 2.3194,-0.31738 z"
           style="font-family:'Lucida Sans Unicode';-inkscape-font-specification:'Lucida Sans Unicode'"
           id="path562" />
        <path
           d="m 1392.322,852.61195 v -38.54981 h 4.8096 v 17.01661 q 3.8086,-5.56641 9.3262,-5.56641 3.4668,0 5.4931,2.19727 2.0508,2.17285 2.0508,5.85937 v 19.04297 h -4.8096 v -17.48047 q 0,-2.9541 -0.8789,-4.19922 -0.8545,-1.26953 -2.8564,-1.26953 -4.419,0 -8.3252,5.78613 v 17.16309 z"
           style="font-family:'Lucida Sans Unicode';-inkscape-font-specification:'Lucida Sans Unicode'"
           id="path564" />
        <path
           d="m 1434.7781,852.61195 14.331,-36.13281 h 5.0782 l 14.1113,36.13281 h -5.542 l -3.9307,-10.00977 h -15.3076 l -3.9795,10.00977 z m 10.2295,-13.81836 h 12.3291 l -6.1524,-15.57617 z"
           style="font-family:'Lucida Sans Unicode';-inkscape-font-specification:'Lucida Sans Unicode'"
           id="path566" />
        <path
           d="m 1473.6697,852.61195 v -26.51367 h 4.8095 v 4.98047 q 2.8565,-5.56641 8.3008,-5.56641 0.7325,0 1.5381,0.12207 v 4.49219 q -1.2451,-0.41504 -2.1973,-0.41504 -4.5654,0 -7.6416,5.41992 v 17.48047 z"
           style="font-family:'Lucida Sans Unicode';-inkscape-font-specification:'Lucida Sans Unicode'"
           id="path568" />
        <path
           d="m 1512.5369,851.80629 q -4.6631,1.41601 -8.0567,1.41601 -5.3711,0 -8.9111,-3.97949 -3.54,-3.97949 -3.54,-10.03418 0,-6.46973 3.4912,-10.08301 3.5156,-3.61328 9.79,-3.61328 3.1006,0 6.9336,0.85449 v 4.02832 q -4.0772,-1.19629 -6.6406,-1.19629 -3.711,0 -5.9326,2.78321 -2.2217,2.75879 -2.2217,7.37304 0,4.46778 2.2949,7.22657 2.2949,2.75879 6.0059,2.75879 3.2959,0 6.7871,-1.68458 z"
           style="font-family:'Lucida Sans Unicode';-inkscape-font-specification:'Lucida Sans Unicode'"
           id="path570" />
        <path
           d="m 1519.739,852.61195 v -38.54981 h 4.8096 v 17.01661 q 3.8086,-5.56641 9.3262,-5.56641 3.4668,0 5.4931,2.19727 2.0508,2.17285 2.0508,5.85937 v 19.04297 h -4.8096 v -17.48047 q 0,-2.9541 -0.8789,-4.19922 -0.8545,-1.26953 -2.8564,-1.26953 -4.419,0 -8.3252,5.78613 v 17.16309 z"
           style="font-family:'Lucida Sans Unicode';-inkscape-font-specification:'Lucida Sans Unicode'"
           id="path572" />
        <path
           d="m 1566.4431,852.61195 v -36.13281 h 5.127 v 32.2998 h 16.2597 v 3.83301 z"
           style="font-family:'Lucida Sans Unicode';-inkscape-font-specification:'Lucida Sans Unicode'"
           id="path574" />
        <path
           d="m 1593.2498,852.61195 v -26.51367 h 4.8095 v 26.51367 z m 0,-31.32324 v -4.80957 h 4.8095 v 4.80957 z"
           style="font-family:'Lucida Sans Unicode';-inkscape-font-specification:'Lucida Sans Unicode'"
           id="path576" />
        <path
           d="m 1607.7029,852.61195 v -26.51367 h 4.8096 v 4.98047 q 3.8085,-5.56641 9.3261,-5.56641 3.4668,0 5.4932,2.19727 2.0508,2.17285 2.0508,5.85937 v 19.04297 h -4.8096 v -17.48047 q 0,-2.9541 -0.8789,-4.19922 -0.8545,-1.26953 -2.8565,-1.26953 -4.4189,0 -8.3251,5.78613 v 17.16309 z"
           style="font-family:'Lucida Sans Unicode';-inkscape-font-specification:'Lucida Sans Unicode'"
           id="path578" />
        <path
           d="m 1655.3103,852.61195 v -4.98047 q -3.833,5.59082 -9.3018,5.59082 -3.4668,0 -5.5175,-2.17285 -2.0508,-2.19727 -2.0508,-5.9082 v -19.04297 h 4.8096 v 17.48047 q 0,2.97851 0.8544,4.24804 0.879,1.24512 2.9053,1.24512 4.3946,0 8.3008,-5.78613 v -17.1875 h 4.8096 v 26.51367 z"
           style="font-family:'Lucida Sans Unicode';-inkscape-font-specification:'Lucida Sans Unicode'"
           id="path580" />
        <path
           d="m 1667.1023,852.61195 10.083,-13.69629 -9.79,-12.81738 h 5.7129 l 7.7392,10.20508 7.0068,-10.20508 h 4.6875 l -9.1796,13.45215 9.9853,13.06152 h -5.7129 l -7.9834,-10.49805 -7.7148,10.49805 z"
           style="font-family:'Lucida Sans Unicode';-inkscape-font-specification:'Lucida Sans Unicode'"
           id="path582" />
      </g>
    </g>
  </g>
  <metadata
     id="metadata333">
    <rdf:RDF>
      <cc:Work
         rdf:about="">
        <cc:license
           rdf:resource="http://creativecommons.org/publicdomain/zero/1.0/" />
      </cc:Work>
      <cc:License
         rdf:about="http://creativecommons.org/publicdomain/zero/1.0/">
        <cc:permits
           rdf:resource="http://creativecommons.org/ns#Reproduction" />
        <cc:permits
           rdf:resource="http://creativecommons.org/ns#Distribution" />
        <cc:permits
           rdf:resource="http://creativecommons.org/ns#DerivativeWorks" />
      </cc:License>
    </rdf:RDF>
  </metadata>
</svg>
